# Blender 4.5.3 LTS
# www.blender.org
mtllib dirt_1k.mtl
o Plane
v -5.000000 0.000000 5.000000
v 5.000000 0.000000 5.000000
v -5.000000 0.000000 -5.000000
v 5.000000 0.000000 -5.000000
v -5.000000 0.000000 -15.000000
v 5.000000 0.000000 -15.000000
v -15.000000 0.000000 5.000000
v -15.000000 0.000000 -5.000000
v -15.000000 0.000000 -15.000000
v -5.000000 0.000000 0.000000
v 0.000000 0.000000 5.000000
v 5.000000 0.000000 0.000000
v 0.000000 0.000000 -5.000000
v 0.000000 0.000000 -15.000000
v -5.000000 0.000000 -10.000000
v 5.000000 0.000000 -10.000000
v -15.000000 0.000000 0.000000
v -15.000000 0.000000 -10.000000
v -10.000000 0.000000 -5.000000
v -10.000000 0.000000 -15.000000
v -10.000000 0.000000 5.000000
v -10.000000 0.000000 0.000000
v -10.000000 0.000000 -10.000000
v 0.000000 0.000000 -10.000000
v 0.000000 0.000000 0.000000
vn -0.0000 1.0000 -0.0000
vt 0.500000 0.000000
vt 1.000000 0.500000
vt 0.500000 0.500000
vt 1.500000 0.000000
vt 2.000000 0.500000
vt 1.500000 0.500000
vt 2.000000 1.500000
vt 1.500000 2.000000
vt 1.500000 1.500000
vt 1.000000 1.500000
vt 0.500000 2.000000
vt 0.500000 1.500000
vt 0.000000 2.000000
vt 0.000000 1.500000
vt 0.500000 1.000000
vt 0.000000 1.000000
vt 1.000000 1.000000
vt 1.000000 2.000000
vt 1.500000 1.000000
vt 2.000000 1.000000
vt 1.000000 0.000000
vt 0.000000 0.500000
vt 0.000000 0.000000
vt 2.000000 0.000000
vt 2.000000 2.000000
s 0
usemtl Material.001
f 12/1/1 13/2/1 25/3/1
f 16/4/1 14/5/1 24/6/1
f 20/7/1 18/8/1 23/9/1
f 19/10/1 17/11/1 22/12/1
f 22/12/1 7/13/1 21/14/1
f 10/15/1 21/14/1 1/16/1
f 3/17/1 22/12/1 10/15/1
f 23/9/1 8/18/1 19/10/1
f 15/19/1 19/10/1 3/17/1
f 5/20/1 23/9/1 15/19/1
f 24/6/1 5/20/1 15/19/1
f 13/2/1 15/19/1 3/17/1
f 4/21/1 24/6/1 13/2/1
f 25/3/1 3/17/1 10/15/1
f 11/22/1 10/15/1 1/16/1
f 2/23/1 25/3/1 11/22/1
f 12/1/1 4/21/1 13/2/1
f 16/4/1 6/24/1 14/5/1
f 20/7/1 9/25/1 18/8/1
f 19/10/1 8/18/1 17/11/1
f 22/12/1 17/11/1 7/13/1
f 10/15/1 22/12/1 21/14/1
f 3/17/1 19/10/1 22/12/1
f 23/9/1 18/8/1 8/18/1
f 15/19/1 23/9/1 19/10/1
f 5/20/1 20/7/1 23/9/1
f 24/6/1 14/5/1 5/20/1
f 13/2/1 24/6/1 15/19/1
f 4/21/1 16/4/1 24/6/1
f 25/3/1 13/2/1 3/17/1
f 11/22/1 25/3/1 10/15/1
f 2/23/1 12/1/1 25/3/1
